<?xml version="1.0" encoding="utf-8"?>
<!-- Generator: Adobe Illustrator 24.3.0, SVG Export Plug-In . SVG Version: 6.00 Build 0)  -->
<svg version="1.1" id="Layer_1" xmlns="http://www.w3.org/2000/svg" xmlns:xlink="http://www.w3.org/1999/xlink" x="0px" y="0px"
	 viewBox="0 0 1118.9 167.4" style="enable-background:new 0 0 1118.9 167.4;" xml:space="preserve">
<style type="text/css">
	.st0{fill:none;stroke:#FFC42D;stroke-miterlimit:10;}
	.st1{fill:none;stroke:#FFB82F;stroke-miterlimit:10;}
	.st2{fill:none;stroke:#FFAD31;stroke-miterlimit:10;}
	.st3{fill:none;stroke:#FFA134;stroke-miterlimit:10;}
	.st4{fill:none;stroke:#FF9636;stroke-miterlimit:10;}
	.st5{fill:none;stroke:#FF8A38;stroke-miterlimit:10;}
	.st6{fill:none;stroke:#FF7F3A;stroke-miterlimit:10;}
	.st7{fill:none;stroke:#FF733C;stroke-miterlimit:10;}
	.st8{fill:none;stroke:#FF683E;stroke-miterlimit:10;}
	.st9{fill:none;stroke:#FF5C41;stroke-miterlimit:10;}
	.st10{fill:none;stroke:#FF5143;stroke-miterlimit:10;}
	.st11{fill:none;stroke:#FF4545;stroke-miterlimit:10;}
	.st12{fill:#FFFFFF;}
	.st13{fill:none;stroke:#FFC229;stroke-miterlimit:10;}
	.st14{fill:none;stroke:#FFB72C;stroke-miterlimit:10;}
	.st15{fill:none;stroke:#FFAB2E;stroke-miterlimit:10;}
	.st16{fill:none;stroke:#FFA031;stroke-miterlimit:10;}
	.st17{fill:none;stroke:#FF9533;stroke-miterlimit:10;}
	.st18{fill:none;stroke:#FF8936;stroke-miterlimit:10;}
	.st19{fill:none;stroke:#FF7E38;stroke-miterlimit:10;}
	.st20{fill:none;stroke:#FF723B;stroke-miterlimit:10;}
	.st21{fill:none;stroke:#FF673D;stroke-miterlimit:10;}
	.st22{fill:none;stroke:#FF5C40;stroke-miterlimit:10;}
	.st23{fill:none;stroke:#FF5042;stroke-miterlimit:10;}
	.st24{clip-path:url(#SVGID_2_);}
</style>
<g>
	<g>
		<g>
			<g>
				<g>
					<line class="st0" x1="170.5" y1="84.2" x2="237.8" y2="151.5"/>
					<line class="st0" x1="176.7" y1="78.1" x2="231.7" y2="145.4"/>
					<line class="st0" x1="182.8" y1="72" x2="225.6" y2="139.2"/>
					<line class="st0" x1="188.9" y1="65.8" x2="219.5" y2="133.1"/>
					<line class="st0" x1="195" y1="59.7" x2="213.4" y2="127"/>
					<line class="st0" x1="201.1" y1="53.6" x2="207.2" y2="120.9"/>
					<line class="st0" x1="207.2" y1="47.5" x2="201.1" y2="114.8"/>
					<line class="st0" x1="213.4" y1="41.4" x2="195" y2="108.7"/>
					<line class="st0" x1="219.5" y1="35.2" x2="188.9" y2="102.5"/>
					<line class="st0" x1="225.6" y1="29.1" x2="182.8" y2="96.4"/>
					<line class="st0" x1="231.7" y1="23" x2="176.7" y2="90.3"/>
					<line class="st0" x1="237.8" y1="16.9" x2="170.5" y2="84.2"/>
					<line class="st1" x1="237.8" y1="29.1" x2="176.7" y2="78.1"/>
					<line class="st2" x1="237.8" y1="41.4" x2="182.8" y2="72"/>
					<line class="st3" x1="237.8" y1="53.6" x2="188.9" y2="65.8"/>
					<line class="st4" x1="237.8" y1="65.8" x2="195" y2="59.7"/>
					<line class="st5" x1="237.8" y1="78.1" x2="201.1" y2="53.6"/>
					<line class="st6" x1="237.8" y1="90.3" x2="207.2" y2="47.5"/>
					<line class="st7" x1="237.8" y1="102.5" x2="213.4" y2="41.4"/>
					<line class="st8" x1="237.8" y1="114.8" x2="219.5" y2="35.2"/>
					<line class="st9" x1="237.8" y1="127" x2="225.6" y2="29.1"/>
					<line class="st10" x1="237.8" y1="139.2" x2="231.7" y2="23"/>
					<line class="st11" x1="237.8" y1="151.5" x2="237.8" y2="16.9"/>
				</g>
			</g>
			<rect x="224.9" y="70.7" class="st12" width="26.9" height="26.9"/>
		</g>
		<g>
			<g>
				<g>
					<line class="st0" x1="305.1" y1="84.2" x2="237.8" y2="16.9"/>
					<line class="st0" x1="299" y1="90.3" x2="243.9" y2="23"/>
					<line class="st0" x1="292.9" y1="96.4" x2="250.1" y2="29.1"/>
					<line class="st0" x1="286.8" y1="102.5" x2="256.2" y2="35.2"/>
					<line class="st0" x1="280.7" y1="108.7" x2="262.3" y2="41.4"/>
					<line class="st0" x1="274.5" y1="114.8" x2="268.4" y2="47.5"/>
					<line class="st0" x1="268.4" y1="120.9" x2="274.5" y2="53.6"/>
					<line class="st0" x1="262.3" y1="127" x2="280.7" y2="59.7"/>
					<line class="st0" x1="256.2" y1="133.1" x2="286.8" y2="65.8"/>
					<line class="st0" x1="250.1" y1="139.2" x2="292.9" y2="72"/>
					<line class="st0" x1="243.9" y1="145.4" x2="299" y2="78.1"/>
					<line class="st0" x1="237.8" y1="151.5" x2="305.1" y2="84.2"/>
					<line class="st1" x1="237.8" y1="139.2" x2="299" y2="90.3"/>
					<line class="st2" x1="237.8" y1="127" x2="292.9" y2="96.4"/>
					<line class="st3" x1="237.8" y1="114.8" x2="286.8" y2="102.5"/>
					<line class="st4" x1="237.8" y1="102.5" x2="280.7" y2="108.7"/>
					<line class="st5" x1="237.8" y1="90.3" x2="274.5" y2="114.8"/>
					<line class="st6" x1="237.8" y1="78.1" x2="268.4" y2="120.9"/>
					<line class="st7" x1="237.8" y1="65.8" x2="262.3" y2="127"/>
					<line class="st8" x1="237.8" y1="53.6" x2="256.2" y2="133.1"/>
					<line class="st9" x1="237.8" y1="41.4" x2="250.1" y2="139.2"/>
					<line class="st10" x1="237.8" y1="29.1" x2="243.9" y2="145.4"/>
					<line class="st11" x1="237.8" y1="16.9" x2="237.8" y2="151.5"/>
				</g>
			</g>
		</g>
	</g>
	<g>
		<g>
			<g>
				<line class="st13" x1="559.8" y1="151.5" x2="559.8" y2="84.2"/>
				<line class="st14" x1="553.6" y1="145.4" x2="565.9" y2="84.2"/>
				<line class="st15" x1="547.5" y1="139.2" x2="572" y2="84.2"/>
				<line class="st16" x1="541.4" y1="133.1" x2="578.1" y2="84.2"/>
				<line class="st17" x1="535.3" y1="127" x2="584.2" y2="84.2"/>
				<line class="st18" x1="529.2" y1="120.9" x2="590.3" y2="84.2"/>
				<line class="st19" x1="523" y1="114.8" x2="596.5" y2="84.2"/>
				<line class="st20" x1="516.9" y1="108.7" x2="602.6" y2="84.2"/>
				<line class="st21" x1="510.8" y1="102.5" x2="608.7" y2="84.2"/>
				<line class="st22" x1="504.7" y1="96.4" x2="614.8" y2="84.2"/>
				<line class="st23" x1="498.6" y1="90.3" x2="620.9" y2="84.2"/>
				<line class="st11" x1="492.5" y1="84.2" x2="627.1" y2="84.2"/>
			</g>
			<g>
				<line class="st13" x1="559.8" y1="16.9" x2="559.8" y2="84.2"/>
				<line class="st14" x1="553.6" y1="23" x2="565.9" y2="84.2"/>
				<line class="st15" x1="547.5" y1="29.1" x2="572" y2="84.2"/>
				<line class="st16" x1="541.4" y1="35.2" x2="578.1" y2="84.2"/>
				<line class="st17" x1="535.3" y1="41.4" x2="584.2" y2="84.2"/>
				<line class="st18" x1="529.2" y1="47.5" x2="590.3" y2="84.2"/>
				<line class="st19" x1="523" y1="53.6" x2="596.5" y2="84.2"/>
				<line class="st20" x1="516.9" y1="59.7" x2="602.6" y2="84.2"/>
				<line class="st21" x1="510.8" y1="65.8" x2="608.7" y2="84.2"/>
				<line class="st22" x1="504.7" y1="72" x2="614.8" y2="84.2"/>
				<line class="st23" x1="498.6" y1="78.1" x2="620.9" y2="84.2"/>
				<line class="st11" x1="492.5" y1="84.2" x2="627.1" y2="84.2"/>
			</g>
			<rect x="545.8" y="70.7" class="st12" width="26.9" height="26.9"/>
		</g>
		<g>
			<line class="st11" x1="492.5" y1="84.2" x2="559.8" y2="16.9"/>
			<line class="st10" x1="498.6" y1="90.3" x2="565.9" y2="23"/>
			<line class="st9" x1="504.7" y1="96.4" x2="572" y2="29.1"/>
			<line class="st8" x1="510.8" y1="102.5" x2="578.1" y2="35.2"/>
			<line class="st7" x1="516.9" y1="108.7" x2="584.2" y2="41.4"/>
			<line class="st6" x1="523" y1="114.8" x2="590.3" y2="47.5"/>
			<line class="st5" x1="529.2" y1="120.9" x2="596.5" y2="53.6"/>
			<line class="st4" x1="535.3" y1="127" x2="602.6" y2="59.7"/>
			<line class="st3" x1="541.4" y1="133.1" x2="608.7" y2="65.8"/>
			<line class="st2" x1="547.5" y1="139.2" x2="614.8" y2="72"/>
			<line class="st1" x1="553.6" y1="145.4" x2="620.9" y2="78.1"/>
			<line class="st0" x1="559.8" y1="151.5" x2="627.1" y2="84.2"/>
		</g>
	</g>
	<g>
		<g>
			<line class="st11" x1="814.3" y1="84.2" x2="881.6" y2="16.9"/>
			<line class="st10" x1="820.4" y1="90.3" x2="887.7" y2="23"/>
			<line class="st9" x1="826.5" y1="96.4" x2="893.8" y2="29.1"/>
			<line class="st8" x1="832.6" y1="102.5" x2="899.9" y2="35.2"/>
			<line class="st7" x1="838.7" y1="108.7" x2="906" y2="41.4"/>
			<line class="st6" x1="844.9" y1="114.8" x2="912.2" y2="47.5"/>
			<line class="st5" x1="851" y1="120.9" x2="918.3" y2="53.6"/>
			<line class="st4" x1="857.1" y1="127" x2="924.4" y2="59.7"/>
			<line class="st3" x1="863.2" y1="133.1" x2="930.5" y2="65.8"/>
			<line class="st2" x1="869.3" y1="139.2" x2="936.6" y2="72"/>
			<line class="st1" x1="875.4" y1="145.4" x2="942.7" y2="78.1"/>
			<line class="st0" x1="881.6" y1="151.5" x2="948.9" y2="84.2"/>
		</g>
		<rect x="868.1" y="70.7" class="st12" width="26.9" height="26.9"/>
	</g>
	<g>
		<g>
			<g>
				<g>
					<line class="st0" x1="331.4" y1="84.4" x2="398.7" y2="84.4"/>
					<line class="st1" x1="337.6" y1="90.5" x2="398.7" y2="78.2"/>
					<line class="st2" x1="343.7" y1="96.6" x2="398.7" y2="72.1"/>
					<line class="st3" x1="349.8" y1="102.7" x2="398.7" y2="66"/>
					<line class="st4" x1="355.9" y1="108.8" x2="398.7" y2="59.9"/>
					<line class="st5" x1="362" y1="114.9" x2="398.7" y2="53.8"/>
					<line class="st6" x1="368.2" y1="121.1" x2="398.7" y2="47.7"/>
					<line class="st7" x1="374.3" y1="127.2" x2="398.7" y2="41.5"/>
					<line class="st8" x1="380.4" y1="133.3" x2="398.7" y2="35.4"/>
					<line class="st9" x1="386.5" y1="139.4" x2="398.7" y2="29.3"/>
					<line class="st10" x1="392.6" y1="145.5" x2="398.7" y2="23.2"/>
					<line class="st11" x1="398.7" y1="151.7" x2="398.7" y2="17.1"/>
				</g>
			</g>
			<g>
				<g>
					<line class="st13" x1="398.2" y1="84.4" x2="465.5" y2="84.4"/>
				</g>
			</g>
			<rect x="385.8" y="70.9" class="st12" width="26.9" height="26.9"/>
		</g>
		<g>
			<g>
				<g>
					<g>
						<line class="st0" x1="331.4" y1="84.4" x2="465.5" y2="84.4"/>
						<line class="st1" x1="343.7" y1="84.4" x2="459.5" y2="78.2"/>
						<line class="st2" x1="355.9" y1="84.4" x2="453.4" y2="72.1"/>
						<line class="st3" x1="368.1" y1="84.4" x2="447.3" y2="66"/>
						<line class="st4" x1="380.3" y1="84.5" x2="441.3" y2="59.9"/>
						<line class="st5" x1="392.5" y1="84.5" x2="435.2" y2="53.8"/>
						<line class="st6" x1="404.7" y1="84.5" x2="429.1" y2="47.7"/>
						<line class="st7" x1="416.9" y1="84.5" x2="423" y2="41.5"/>
						<line class="st8" x1="429.1" y1="84.5" x2="417" y2="35.4"/>
						<line class="st9" x1="441.4" y1="84.6" x2="410.9" y2="29.3"/>
						<line class="st10" x1="453.6" y1="84.6" x2="404.8" y2="23.2"/>
						<line class="st11" x1="465.8" y1="84.6" x2="398.7" y2="17.1"/>
					</g>
				</g>
			</g>
		</g>
	</g>
	<g>
		<g>
			<g>
				<line class="st11" x1="1042.8" y1="16.9" x2="1110.1" y2="84.2"/>
				<line class="st10" x1="1036.7" y1="23" x2="1104" y2="90.3"/>
				<line class="st9" x1="1030.6" y1="29.1" x2="1097.9" y2="96.4"/>
				<line class="st8" x1="1024.5" y1="35.2" x2="1091.8" y2="102.5"/>
				<line class="st7" x1="1018.4" y1="41.4" x2="1085.6" y2="108.7"/>
				<line class="st6" x1="1012.2" y1="47.5" x2="1079.5" y2="114.8"/>
				<line class="st5" x1="1006.1" y1="53.6" x2="1073.4" y2="120.9"/>
				<line class="st4" x1="1000" y1="59.7" x2="1067.3" y2="127"/>
				<line class="st3" x1="993.9" y1="65.8" x2="1061.2" y2="133.1"/>
				<line class="st2" x1="987.8" y1="72" x2="1055.1" y2="139.2"/>
				<line class="st1" x1="981.7" y1="78.1" x2="1048.9" y2="145.4"/>
				<line class="st0" x1="975.5" y1="84.2" x2="1042.8" y2="151.5"/>
			</g>
			<g>
				<g>
					<line class="st11" x1="975.5" y1="84.2" x2="1042.8" y2="151.5"/>
					<line class="st23" x1="981.7" y1="78.1" x2="1042.8" y2="151.5"/>
					<line class="st22" x1="987.8" y1="72" x2="1042.8" y2="151.5"/>
					<line class="st21" x1="993.9" y1="65.8" x2="1042.8" y2="151.5"/>
					<line class="st20" x1="1000" y1="59.7" x2="1042.8" y2="151.5"/>
					<line class="st19" x1="1006.1" y1="53.6" x2="1042.8" y2="151.5"/>
					<line class="st18" x1="1012.2" y1="47.5" x2="1042.8" y2="151.5"/>
					<line class="st17" x1="1018.4" y1="41.4" x2="1042.8" y2="151.5"/>
					<line class="st16" x1="1024.5" y1="35.2" x2="1042.8" y2="151.5"/>
					<line class="st15" x1="1030.6" y1="29.1" x2="1042.8" y2="151.5"/>
					<line class="st14" x1="1036.7" y1="23" x2="1042.8" y2="151.5"/>
					<line class="st13" x1="1042.8" y1="16.9" x2="1042.8" y2="151.5"/>
				</g>
			</g>
			
				<rect x="1029.4" y="70.7" transform="matrix(-1.836970e-16 1 -1 -1.836970e-16 1127.0023 -958.6442)" class="st12" width="26.9" height="26.9"/>
		</g>
		<g>
			<g>
				<line class="st11" x1="1110.1" y1="84.4" x2="1042.8" y2="17.1"/>
				<line class="st23" x1="1104" y1="90.5" x2="1042.8" y2="17.1"/>
				<line class="st22" x1="1097.9" y1="96.6" x2="1042.8" y2="17.1"/>
				<line class="st21" x1="1091.8" y1="102.7" x2="1042.8" y2="17.1"/>
				<line class="st20" x1="1085.6" y1="108.8" x2="1042.8" y2="17.1"/>
				<line class="st19" x1="1079.5" y1="115" x2="1042.8" y2="17.1"/>
				<line class="st18" x1="1073.4" y1="121.1" x2="1042.8" y2="17.1"/>
				<line class="st17" x1="1067.3" y1="127.2" x2="1042.8" y2="17.1"/>
				<line class="st16" x1="1061.2" y1="133.3" x2="1042.8" y2="17.1"/>
				<line class="st15" x1="1055.1" y1="139.4" x2="1042.8" y2="17.1"/>
				<line class="st14" x1="1048.9" y1="145.5" x2="1042.8" y2="17.1"/>
				<line class="st13" x1="1042.8" y1="151.7" x2="1042.8" y2="17.1"/>
			</g>
		</g>
	</g>
	<g>
		<g>
			<line class="st0" x1="720.7" y1="151.5" x2="720.7" y2="84.2"/>
			<line class="st1" x1="726.8" y1="145.4" x2="714.5" y2="84.2"/>
			<line class="st2" x1="732.9" y1="139.3" x2="708.4" y2="84.2"/>
			<line class="st3" x1="739" y1="133.1" x2="702.3" y2="84.2"/>
			<line class="st4" x1="745.1" y1="127" x2="696.2" y2="84.2"/>
			<line class="st5" x1="751.2" y1="120.9" x2="690.1" y2="84.2"/>
			<line class="st6" x1="757.4" y1="114.8" x2="684" y2="84.2"/>
			<line class="st7" x1="763.5" y1="108.7" x2="677.8" y2="84.2"/>
			<line class="st8" x1="769.6" y1="102.5" x2="671.7" y2="84.2"/>
			<line class="st9" x1="775.7" y1="96.4" x2="665.6" y2="84.2"/>
			<line class="st10" x1="781.8" y1="90.3" x2="659.5" y2="84.2"/>
			<line class="st11" x1="788" y1="84.2" x2="653.4" y2="84.2"/>
		</g>
		<rect x="706.7" y="70.8" class="st12" width="26.9" height="26.9"/>
		<g>
			<line class="st0" x1="720.7" y1="16.9" x2="720.7" y2="84.2"/>
			<line class="st1" x1="714.5" y1="23" x2="726.8" y2="84.2"/>
			<line class="st2" x1="708.4" y1="29.1" x2="732.9" y2="84.2"/>
			<line class="st3" x1="702.3" y1="35.2" x2="739" y2="84.2"/>
			<line class="st4" x1="696.2" y1="41.4" x2="745.1" y2="84.2"/>
			<line class="st5" x1="690.1" y1="47.5" x2="751.2" y2="84.2"/>
			<line class="st6" x1="684" y1="53.6" x2="757.4" y2="84.2"/>
			<line class="st7" x1="677.8" y1="59.7" x2="763.5" y2="84.2"/>
			<line class="st8" x1="671.7" y1="65.8" x2="769.6" y2="84.2"/>
			<line class="st9" x1="665.6" y1="71.9" x2="775.7" y2="84.2"/>
			<line class="st10" x1="659.5" y1="78.1" x2="781.8" y2="84.2"/>
			<line class="st11" x1="653.4" y1="84.2" x2="788" y2="84.2"/>
		</g>
	</g>
	<g>
		<g>
			<defs>
				
					<rect id="SVGID_1_" x="28.1" y="36.1" transform="matrix(0.7071 -0.7071 0.7071 0.7071 -37.2052 78.5507)" width="96.2" height="96.2"/>
			</defs>
			<clipPath id="SVGID_2_">
				<use xlink:href="#SVGID_1_"  style="overflow:visible;"/>
			</clipPath>
			<g class="st24">
				<line class="st0" x1="9.2" y1="84.2" x2="143.3" y2="84.2"/>
				<line class="st11" x1="76.2" y1="151.5" x2="76.2" y2="16.9"/>
				<line class="st0" x1="10.2" y1="95.8" x2="142.2" y2="72.5"/>
				<line class="st11" x1="87.9" y1="150.5" x2="64.5" y2="17.9"/>
				<line class="st0" x1="13.2" y1="107.1" x2="139.2" y2="61.3"/>
				<line class="st11" x1="99.2" y1="147.4" x2="53.2" y2="21"/>
				<line class="st0" x1="18.2" y1="117.7" x2="134.3" y2="50.7"/>
				<line class="st11" x1="109.9" y1="142.5" x2="42.6" y2="25.9"/>
				<line class="st0" x1="24.9" y1="127.3" x2="127.6" y2="41.1"/>
				<line class="st11" x1="119.5" y1="135.7" x2="33" y2="32.6"/>
				<line class="st0" x1="33.1" y1="135.5" x2="119.3" y2="32.8"/>
				<line class="st11" x1="127.8" y1="127.4" x2="24.7" y2="40.9"/>
				<line class="st0" x1="42.7" y1="142.2" x2="109.7" y2="26.1"/>
				<line class="st11" x1="134.5" y1="117.8" x2="17.9" y2="50.5"/>
				<line class="st0" x1="53.3" y1="147.2" x2="99.1" y2="21.2"/>
				<line class="st11" x1="139.4" y1="107.2" x2="13" y2="61.2"/>
				<line class="st0" x1="64.6" y1="150.2" x2="87.9" y2="18.2"/>
				<line class="st11" x1="142.5" y1="95.9" x2="9.9" y2="72.5"/>
			</g>
		</g>
		<rect x="62.8" y="70.7" class="st12" width="26.9" height="26.9"/>
	</g>
</g>
</svg>
